PathFileType	4	(X/Y/Z)	path1_20_0-911.trc
DataRate	CameraRate	NumFrames	NumMarkers	Units	OrigDataRate	OrigDataStartFrame	OrigNumFrames
30	30	7	22	m	30	569	911
Frame#	Time	Hip			RHip			RKnee			RAnkle			RBigToe			RSmallToe			RHeel			LHip			LKnee			LAnkle			LBigToe			LSmallToe			LHeel			Neck			Head			Nose			RShoulder			RElbow			RWrist			LShoulder			LElbow			LWrist		
		X1	Y1	Z1	X2	Y2	Z2	X3	Y3	Z3	X4	Y4	Z4	X5	Y5	Z5	X6	Y6	Z6	X7	Y7	Z7	X8	Y8	Z8	X9	Y9	Z9	X10	Y10	Z10	X11	Y11	Z11	X12	Y12	Z12	X13	Y13	Z13	X14	Y14	Z14	X15	Y15	Z15	X16	Y16	Z16	X17	Y17	Z17	X18	Y18	Z18	X19	Y19	Z19	X20	Y20	Z20	X21	Y21	Z21	X22	Y22	Z22
570	19.0	-2.4302419570902267	0.7984888007653397	0.7708005350551228	-2.434601371378607	0.7524091346279158	0.6834150644310187	-2.3803532983970235	0.4282060993120248	0.6767669234950751	-2.3310949545723796	0.06904206748142558	0.6976211806480886	-2.508186730161277	-0.021642200405042007	0.6906146175565512	-2.478922755925971	-0.0362567846712414	0.6416074420917732	-2.2851803798991646	0.0030120046022475626	0.7101978831322061	-2.4166869747636133	0.7527410631719126	0.8497169918044617	-2.424327331070847	0.4056595109391743	0.8506065943560434	-2.3362017936929624	0.05579158840450686	0.8293881131254769	-2.4982654715997916	-0.021354752577308626	0.8391852832105837	-2.5584872382649415	-0.051050876129193234	0.8575837382762667	-2.293442791561736	-0.012062616925540757	0.821948665691733	-2.435164891515746	1.4331044574694871	0.779735079391258	-2.489087287556967	1.6282272826467703	0.8052600448360707	-2.5626051058881663	1.4928624526134757	0.8318572719558326	-2.405113397244827	1.3269570310065277	0.6025419036940757	-2.358389868163142	1.0523409493217235	0.5529485049550715	-2.3937024622057086	0.8082689827325159	0.5402036415624899	-2.4195136897823986	1.3097462543429197	0.9635243410444548	-2.419292619912844	1.0457296562634393	0.994252310402876	-2.4620113143933597	0.8045191971635806	1.0041892484747261
571	19.03333333333333	-2.4302101759329333	0.7985341921376012	0.7708851566712864	-2.43499510414396	0.7531830345571613	0.683207088975484	-2.380330945662218	0.4281486908853347	0.6769462877561717	-2.331005097430761	0.06887560344755521	0.697668954970615	-2.5084324476216175	-0.021159450908899327	0.6904820675742096	-2.4789048099693622	-0.03586645236412465	0.6411320260504012	-2.2851893713536033	0.002918383011628001	0.7102095765890206	-2.4163207632924575	0.7536472110175889	0.8499056820315815	-2.422958915720527	0.40564540520800935	0.8505865345164288	-2.3361103470642446	0.05601458823240902	0.8297524741173551	-2.497700429836409	-0.02057838062382994	0.8384583702201506	-2.5592146895119967	-0.05078799156272936	0.8571038580859988	-2.292889667562766	-0.011788979048817953	0.8221965287655275	-2.4350439116924307	1.4330263035821398	0.7798987556145716	-2.4894147922746837	1.6281361242260408	0.8058720368939589	-2.562905203454712	1.4926577569637702	0.8312204165440968	-2.4052094396382873	1.3270696941731586	0.6024884387014049	-2.3581732137686804	1.0528253883081689	0.5528376310430949	-2.393948099857037	0.808430065731567	0.5399651679518778	-2.4190110665757683	1.3100615136059666	0.9639604523344033	-2.4193550093551393	1.045814739340824	0.994651856978763	-2.4623164320994655	0.8042317688219813	1.0042954301474585
572	19.066666666666663	-2.4303185172296917	0.7986242694466422	0.7710242131947309	-2.4353314586237937	0.7538214736385641	0.6830090528224331	-2.380332244566304	0.42812288946457183	0.6770701473427222	-2.330957541350036	0.06873653979946452	0.6977560416065681	-2.5085732716677365	-0.02080343973145136	0.6902976540440731	-2.478876649162929	-0.035518928532022966	0.6407455825649532	-2.285206162664921	0.0027999883623514134	0.7101790070481304	-2.4162113426625047	0.7544709621954706	0.8502335571373187	-2.4206410229216213	0.40565873707135114	0.850549515146367	-2.3359259769841016	0.05616489108026025	0.8301781581049295	-2.497385557975659	-0.02017413851995959	0.8382667797580104	-2.559856514533469	-0.05059887308245044	0.8568225046602577	-2.292357298860007	-0.011536090342280862	0.8224403351363686	-2.4349522469294396	1.432999024357755	0.7800267568091809	-2.4895497172946883	1.6278498918130788	0.8065750630382913	-2.5631533327772273	1.4923737966368196	0.8309949612701244	-2.405200659679849	1.32727087824088	0.6025228161750565	-2.3580644714864905	1.0531514166944056	0.5527529534484763	-2.394204024686729	0.8085986287845346	0.5397540724205963	-2.4184580395945634	1.3103275096043818	0.9643256002651819	-2.419375460658101	1.0458731533546914	0.9951855546957437	-2.4625303846708855	0.8040607170950969	1.0044477877814944
573	19.1	-2.430495818412437	0.798732112433172	0.7712308826225944	-2.435587163715571	0.7543016157568001	0.6828164688283506	-2.3803850278191017	0.42811431675728334	0.6771034935047008	-2.3310044928276787	0.06865830254934818	0.6978046507158506	-2.508670287064506	-0.02066555319700128	0.6901605919807358	-2.478870657288319	-0.035246773818982995	0.640435092767587	-2.285240042368491	0.002716684745296451	0.7100845887251267	-2.416368779952863	0.7551157186249597	0.8506192787604856	-2.4177207205854954	0.40561047812236534	0.8504614125190342	-2.335631299791867	0.056283788337051596	0.8304721745622099	-2.4973190471650826	-0.020156905788637037	0.8386047404313726	-2.559876627077982	-0.05040144117899596	0.8568615797995515	-2.291927236882093	-0.011331427345313201	0.8226063938433495	-2.4348646594126517	1.4330610251117628	0.7801435764002141	-2.489526122668043	1.6274038716946482	0.8073430502616021	-2.5632701470142	1.492085159540221	0.831273791239699	-2.40506910872943	1.3275248372017767	0.6026482790381417	-2.358110006068632	1.053248584482856	0.5526324336198845	-2.394409466398501	0.8087507742572753	0.5395456476215024	-2.417875646323996	1.3105312276321819	0.9646060206498326	-2.4192913364234285	1.0458050403164847	0.9958277895179529	-2.4627061890175703	0.8039241803488332	1.0046748466980313
574	19.133333333333333	-2.4305951245368047	0.7988286546320659	0.7714823762471222	-2.435663246861997	0.7545929696141517	0.6827226894261932	-2.380489091232075	0.4280445361450436	0.6770971662706096	-2.3312025269303094	0.06862327135978244	0.6977383348446453	-2.508824170866867	-0.02076531102419557	0.6901751390804974	-2.4789557319023	-0.03508731338973854	0.6402667225526014	-2.285294520612422	0.002668221214166878	0.7099380783980855	-2.4167292335277386	0.7554726809189171	0.8510212403132744	-2.4150571424751726	0.40548359743968737	0.8503987961525008	-2.335266152823324	0.05635904777527942	0.830536182984312	-2.4974499058505404	-0.02041054724486207	0.8393274020131577	-2.5584763289072803	-0.04996505442201853	0.857394811625787	-2.291651835958681	-0.011223018836179394	0.8226878427107369	-2.434751837244746	1.4332357267634042	0.7802721472392652	-2.4893957690187976	1.6269174209047095	0.8082160103419017	-2.563186007185202	1.4918580593075073	0.8320940775808313	-2.404831470801216	1.3277914840403287	0.6028324389921046	-2.35828835587539	1.0531104532310744	0.5524833338682125	-2.394532145760442	0.8088314665177636	0.5393065290823102	-2.4173272616187216	1.3106578311030677	0.9648203467786062	-2.4190400210984584	1.0455552766847307	0.9965229005471699	-2.462879766403728	0.8037661372151437	1.0050233557481738
575	19.166666666666668	-2.4304387601907194	0.7988778339650509	0.7717490661541309	-2.435442908278763	0.7546641535652391	0.6828769163094458	-2.3806198042372295	0.42782246003663665	0.6771347672105488	-2.3315846674592837	0.06857580960722864	0.697506283096871	-2.509114470067017	-0.02107824009071939	0.6904148477545935	-2.479206516556549	-0.03509929781786722	0.6403779958755706	-2.2853877027239133	0.0026058038125078772	0.7097423375323983	-2.4171632425007146	0.7554828811404757	0.851456338019942	-2.4139645898042885	0.40540659814238117	0.8505363951286464	-2.3349363522667423	0.05631979908080618	0.8303718363827087	-2.497714131894431	-0.02073733297349595	0.8401661677696297	-2.554651917381901	-0.04896536814458095	0.8586177391665394	-2.291541291091367	-0.011264121818478868	0.8226960065376229	-2.4346120153449475	1.433509610089643	0.7804211113244492	-2.489201092563517	1.626531803707768	0.8092467122273312	-2.562848447469425	1.491754016697789	0.8333902168148655	-2.4045501296837197	1.328039699868669	0.6030350937695778	-2.358530983935977	1.0528139177764193	0.5523660563713482	-2.3945681783085413	0.8087951487178728	0.5390004470448466	-2.416907298129416	1.3107067915583144	0.9650103346215932	-2.4186184378373685	1.0451559698641633	0.9971740764065906	-2.463049176279682	0.8036320380203538	1.0055473555367258
576	19.2	-2.429930809729345	0.79884960327843	0.7720028028567848	-2.43492327125732	0.754564041946745	0.6833417798404468	-2.38075945301195	0.4274245682090275	0.6772806448800875	-2.332119345159489	0.06847163423454998	0.6971140229958721	-2.5095612187784546	-0.021558053337455817	0.6909058847186652	-2.4796707172312606	-0.03532253045986896	0.6408658057446102	-2.285537155283681	0.002461294692951074	0.7095057227698757	-2.4175221380260887	0.7552014235642548	0.85193553394562	-2.415113468177297	0.4055127946914183	0.850916562440433	-2.334746986304367	0.05611141971459684	0.830035580905718	-2.4980575706956927	-0.020943571290020304	0.8409009903477583	-2.5474364158142495	-0.047082291621682516	0.8607218207112137	-2.2915675519715832	-0.011493480077344912	0.8226111527010623	-2.4344697866693608	1.433830607495327	0.7806042954638375	-2.4890357317529865	1.6263631770294893	0.8103807492145079	-2.5622642719574142	1.491805425396606	0.834953766490601	-2.404314070048463	1.3282450968327963	0.6032278508850684	-2.358752360132602	1.0524912986523498	0.5523304103586042	-2.3945267033111	0.8086350705120524	0.5386264941315584	-2.416698448752437	1.3106872404491061	0.9652479703843388	-2.4180984320545154	1.0447201668628334	0.9976620970272824	-2.463196143517555	0.8036346831483113	1.0062636085489045
